<?xml version="1.0" encoding="UTF-8" standalone="no"?>
<svg
   xmlns:dc="http://purl.org/dc/elements/1.1/"
   xmlns:cc="http://creativecommons.org/ns#"
   xmlns:rdf="http://www.w3.org/1999/02/22-rdf-syntax-ns#"
   xmlns:svg="http://www.w3.org/2000/svg"
   xmlns="http://www.w3.org/2000/svg"
   xmlns:sodipodi="http://sodipodi.sourceforge.net/DTD/sodipodi-0.dtd"
   xmlns:inkscape="http://www.inkscape.org/namespaces/inkscape"
   width="434"
   height="545"
   viewBox="0 0 114.82917 144.1979"
   version="1.1"
   id="svg8"
   sodipodi:docname="jogo_de_dadox.svg"
   inkscape:version="1.0.2 (e86c870879, 2021-01-15, custom)">
  <defs
     id="defs2">
    <rect
       x="-68.250473"
       y="38.484848"
       width="56.825283"
       height="58.929924"
       id="rect1529" />
    <inkscape:perspective
       sodipodi:type="inkscape:persp3d"
       inkscape:vp_x="214.63679 : 375.87806 : 1"
       inkscape:vp_y="32.360328 : -3872.9415 : 0"
       inkscape:vp_z="-502.88059 : 480.7831 : 1"
       inkscape:persp3d-origin="-216.00122 : 747.51255 : 1"
       id="perspective10" />
  </defs>
  <sodipodi:namedview
     id="base"
     pagecolor="#ffffff"
     bordercolor="#666666"
     borderopacity="1.0"
     inkscape:pageopacity="0.0"
     inkscape:pageshadow="2"
     inkscape:zoom="1.0004158"
     inkscape:cx="379.54545"
     inkscape:cy="193.73721"
     inkscape:document-units="mm"
     inkscape:current-layer="layer1"
     inkscape:document-rotation="0"
     showgrid="false"
     inkscape:snap-page="true"
     inkscape:window-width="1920"
     inkscape:window-height="1017"
     inkscape:window-x="-8"
     inkscape:window-y="-8"
     inkscape:window-maximized="1"
     units="px" />
  <metadata
     id="metadata5">
    <rdf:RDF>
      <cc:Work
         rdf:about="">
        <dc:format>image/svg+xml</dc:format>
        <dc:type
           rdf:resource="http://purl.org/dc/dcmitype/StillImage" />
        <dc:title></dc:title>
      </cc:Work>
    </rdf:RDF>
  </metadata>
  <g
     inkscape:label="Layer 1"
     inkscape:groupmode="layer"
     id="layer1">
    <g
       id="g46"
       transform="matrix(0.78048779,0,0,0.67676767,-35.248108,48.069198)" />
    <g
       id="g66">
      <path
         style="fill:#999999;stroke:#808080;stroke-width:0.915098;stroke-miterlimit:4;stroke-dasharray:none;stroke-dashoffset:0;stroke-opacity:1"
         d="m 71.671001,137.03205 c -0.148135,-3.0735 -0.36975,-22.72907 -0.492477,-43.679058 L 70.955388,55.262115 92.272081,36.939606 113.58878,18.617094 l 0.26171,30.86741 0.26171,30.867411 -1.97238,2.849046 c -1.08481,1.566977 -1.97238,3.055258 -1.97238,3.307292 0,0.252034 -0.20528,0.458245 -0.45618,0.458245 -0.2509,0 -0.45618,0.30792 -0.45618,0.684268 0,0.376346 -0.20528,0.684266 -0.45617,0.684266 -0.2509,0 -0.45618,0.290814 -0.45618,0.646255 0,0.355436 -0.16871,0.714677 -0.3749,0.798311 -0.48068,0.194967 -15.591339,22.731432 -15.591339,23.253382 0,0.21552 -0.20528,0.39185 -0.456179,0.39185 -0.250897,0 -0.456176,0.30792 -0.456176,0.68427 0,0.37635 -0.205282,0.68426 -0.456179,0.68426 -0.250899,0 -0.456179,0.30793 -0.456179,0.68427 0,0.37635 -0.205279,0.68427 -0.456178,0.68427 -0.250897,0 -0.456179,0.29081 -0.456179,0.64625 0,0.35544 -0.168386,0.71468 -0.37419,0.79831 -0.482174,0.19594 -14.679689,21.35932 -14.679689,21.88212 0,0.21702 -0.205279,0.39458 -0.456178,0.39458 -0.250897,0 -0.456176,0.30792 -0.456176,0.68427 0,0.37635 -0.205283,0.68427 -0.456179,0.68427 -0.250899,0 -0.456179,0.30792 -0.456179,0.68427 0,0.37634 -0.18461,0.68426 -0.410244,0.68426 -0.225634,0 -0.531448,-2.51468 -0.679585,-5.58818 z"
         id="path48" />
      <path
         style="fill:#b3b3b3;stroke:#808080;stroke-width:0.915098;stroke-miterlimit:4;stroke-dasharray:none;stroke-dashoffset:0;stroke-opacity:1"
         d="M 36.380622,41.222411 C 17.500549,33.667046 2.0532164,27.368963 2.0532164,27.226673 c 0,-0.332886 56.4837196,-25.7175477 57.2244206,-25.7175477 0.842473,0 52.885053,16.1799927 53.322333,16.5778657 0.20886,0.190031 -8.51555,7.996581 -19.387568,17.347882 -10.872018,9.351304 -20.383145,17.569865 -21.13584,18.26347 l -1.368533,1.261094 z"
         id="path50" />
      <path
         style="fill:#cccccc;stroke:#808080;stroke-width:0.915098;stroke-miterlimit:4;stroke-dasharray:none;stroke-dashoffset:0;stroke-opacity:1"
         d="M 36.266579,124.34371 1.8251274,105.23348 1.5471291,86.178114 C 1.1833173,61.240638 1.0801599,27.663338 1.3673582,27.663338 c 0.2677822,0 54.3506568,21.671608 62.9541768,25.226436 l 5.930315,2.450309 0.300942,16.611518 c 0.441516,24.371156 0.715127,71.587239 0.414573,71.541669 -0.142637,-0.0216 -15.75799,-8.63893 -34.700786,-19.14956 z"
         id="path52" />
      <ellipse
         style="fill:#333333;stroke:none;stroke-width:0.371954;stroke-miterlimit:4;stroke-dasharray:none;stroke-dashoffset:0;stroke-opacity:1"
         id="path885"
         cx="28.392326"
         cy="26.703236"
         rx="7.4180799"
         ry="4.3067861" />
      <ellipse
         style="fill:#333333;stroke:none;stroke-width:0.371954;stroke-miterlimit:4;stroke-dasharray:none;stroke-dashoffset:0;stroke-opacity:1"
         id="path885-2"
         cx="65.171684"
         cy="39.749981"
         rx="7.4180799"
         ry="4.3067861" />
      <ellipse
         style="fill:#333333;stroke:none;stroke-width:0.371954;stroke-miterlimit:4;stroke-dasharray:none;stroke-dashoffset:0;stroke-opacity:1"
         id="path885-5"
         cx="59.459087"
         cy="11.187016"
         rx="7.4180799"
         ry="4.3067861" />
      <ellipse
         style="fill:#333333;stroke:none;stroke-width:0.371954;stroke-miterlimit:4;stroke-dasharray:none;stroke-dashoffset:0;stroke-opacity:1"
         id="path885-8"
         cx="91.329353"
         cy="21.108891"
         rx="7.4180799"
         ry="4.3067861" />
      <ellipse
         style="fill:#333333;stroke:none;stroke-width:0.469517;stroke-miterlimit:4;stroke-dasharray:none;stroke-dashoffset:0;stroke-opacity:1"
         id="path885-6"
         cx="14.588158"
         cy="48.691692"
         rx="7.4180799"
         ry="6.8624206" />
      <ellipse
         style="fill:#333333;stroke:none;stroke-width:0.469517;stroke-miterlimit:4;stroke-dasharray:none;stroke-dashoffset:0;stroke-opacity:1"
         id="path885-6-5"
         cx="56.452465"
         cy="120.32764"
         rx="7.4180799"
         ry="6.8624206" />
      <ellipse
         style="fill:#333333;stroke:none;stroke-width:0.469517;stroke-miterlimit:4;stroke-dasharray:none;stroke-dashoffset:0;stroke-opacity:1"
         id="path885-6-8"
         cx="34.431915"
         cy="83.49044"
         rx="7.4180799"
         ry="6.8624206" />
      <text
         xml:space="preserve"
         id="text1527"
         style="font-style:normal;font-weight:normal;font-size:10.5833px;line-height:1.25;font-family:sans-serif;white-space:pre;shape-inside:url(#rect1529);fill:#000000;fill-opacity:1;stroke:none;"
         transform="matrix(-4.4146964,5.3266546,0.04257102,6.4702969,-194.51671,131.13097)"><tspan
           x="-68.25"
           y="48.13984"><tspan
             style="font-style:normal;font-variant:normal;font-weight:normal;font-stretch:normal;font-family:Arial;-inkscape-font-specification:Arial">X</tspan></tspan></text>
    </g>
  </g>
</svg>
